<svg width="297" height="80" viewBox="0 0 297 80" fill="none" xmlns="http://www.w3.org/2000/svg">
<path d="M163.874 54.8984C162.738 55.5495 161.341 55.875 159.684 55.875C158.015 55.875 156.636 55.508 155.547 54.7741C154.469 54.0284 153.931 52.9276 153.931 51.4716C153.931 50.4062 154.215 49.5658 154.783 48.9503C155.363 48.3229 156.121 47.8554 157.056 47.5476C158.003 47.228 159.021 46.9972 160.11 46.8551C160.56 46.7959 161.145 46.7249 161.868 46.642C162.601 46.5473 163.353 46.4408 164.123 46.3224C164.904 46.1922 165.59 46.0443 166.182 45.8786C166.786 45.701 167.176 45.5057 167.354 45.2926V49.1278C167.354 50.2642 167.058 51.3473 166.466 52.3771C165.886 53.407 165.022 54.2474 163.874 54.8984Z" fill="#1982FC"/>
<path d="M251.987 44.7955L246.163 28.3892H245.879L240.055 44.7955H251.987Z" fill="#1982FC"/>
<path fill-rule="evenodd" clip-rule="evenodd" d="M40 0C17.9086 0 0 17.9086 0 40V80H257C279.091 80 297 62.0914 297 40C297 17.9086 279.091 0 257 0H40ZM50.6903 53.2472L39.8949 22.6364H35.2784L48.6307 59H53.1761L66.5284 22.6364H61.9119L51.1165 53.2472H50.6903ZM71.6243 31.7273V59H75.8146V31.7273H71.6243ZM71.642 26.3473C72.2339 26.9036 72.9382 27.1818 73.755 27.1818C74.5717 27.1818 75.2701 26.9036 75.8501 26.3473C76.442 25.791 76.7379 25.1222 76.7379 24.3409C76.7379 23.5597 76.442 22.8909 75.8501 22.3345C75.2701 21.7782 74.5717 21.5 73.755 21.5C72.9382 21.5 72.2339 21.7782 71.642 22.3345C71.062 22.8909 70.772 23.5597 70.772 24.3409C70.772 25.1222 71.062 25.791 71.642 26.3473ZM83.4895 31.7273V59H87.6799V41.7415C87.6799 40.5104 87.9758 39.4155 88.5676 38.4567C89.1713 37.486 89.9881 36.7285 91.0179 36.1839C92.0596 35.6276 93.2433 35.3494 94.5691 35.3494C95.1254 35.3494 95.6522 35.3909 96.1493 35.4737C96.6583 35.5447 96.9838 35.598 97.1259 35.6335V31.3722C96.8891 31.3485 96.5399 31.3307 96.0783 31.3189C95.6167 31.3071 95.2319 31.3011 94.9242 31.3011C93.2907 31.3011 91.8229 31.7214 90.5208 32.5618C89.2187 33.4022 88.3191 34.4972 87.8219 35.8466H87.5378V31.7273H83.4895ZM115.663 35.2784V31.7273H109.839V25.1932H105.649V31.7273H101.529V35.2784H105.649V52.3239C105.649 53.91 106.016 55.224 106.749 56.2656C107.495 57.3073 108.43 58.0826 109.555 58.5916C110.691 59.1006 111.851 59.3551 113.035 59.3551C113.816 59.3551 114.461 59.2959 114.97 59.1776C115.479 59.071 115.876 58.9645 116.16 58.858L115.308 55.0938L114.597 55.2358C114.302 55.2831 113.923 55.3068 113.461 55.3068C112.846 55.3068 112.26 55.2121 111.703 55.0227C111.159 54.8215 110.709 54.4309 110.354 53.8509C110.011 53.259 109.839 52.3712 109.839 51.1875V35.2784H115.663ZM139.154 31.7273V47.8494C139.154 49.554 138.781 50.9567 138.035 52.0575C137.301 53.1584 136.39 53.9751 135.301 54.5078C134.223 55.0405 133.164 55.3068 132.122 55.3068C130.382 55.3068 128.95 54.715 127.825 53.5312C126.713 52.3475 126.156 50.7614 126.156 48.7727V31.7273H121.966V49.0568C121.966 51.3769 122.345 53.3004 123.102 54.8274C123.86 56.3426 124.902 57.4789 126.227 58.2365C127.553 58.9822 129.068 59.3551 130.773 59.3551C132.833 59.3551 134.537 58.8757 135.887 57.9169C137.236 56.9463 138.23 55.7685 138.869 54.3835H139.154V59H143.344V31.7273H139.154ZM154.339 58.6626C155.748 59.3137 157.316 59.6392 159.044 59.6392C160.631 59.6392 161.974 59.4025 163.075 58.929C164.176 58.4555 165.058 57.8814 165.721 57.2067C166.383 56.532 166.857 55.8987 167.141 55.3068H167.354V59H171.544V41.0312C171.544 38.8651 171.189 37.1368 170.479 35.8466C169.769 34.5563 168.875 33.5916 167.798 32.9524C166.733 32.3132 165.626 31.893 164.478 31.6918C163.341 31.4787 162.335 31.3722 161.459 31.3722C160.086 31.3722 158.689 31.5616 157.269 31.9403C155.86 32.3073 154.558 32.9583 153.363 33.8935C152.179 34.8168 151.232 36.107 150.522 37.7642L154.499 39.1847C154.961 38.1903 155.76 37.2552 156.896 36.3793C158.032 35.5033 159.601 35.0653 161.601 35.0653C163.531 35.0653 164.969 35.5507 165.916 36.5213C166.875 37.492 167.354 38.8532 167.354 40.6051V40.7472C167.354 41.4219 167.111 41.8954 166.626 42.1676C166.153 42.4399 165.395 42.6352 164.353 42.7536C163.324 42.8601 161.98 43.0199 160.323 43.233C159.056 43.3987 157.796 43.6236 156.541 43.9077C155.298 44.1799 154.162 44.5942 153.132 45.1506C152.102 45.7069 151.279 46.4763 150.664 47.4588C150.048 48.4295 149.74 49.696 149.74 51.2585C149.74 53.0341 150.155 54.5492 150.983 55.804C151.812 57.0469 152.931 57.9998 154.339 58.6626ZM183.383 59V22.6364H179.193V59H183.383ZM203.7 22.6364V26.5426H215.135V59H219.538V26.5426H230.973V22.6364H203.7ZM230.396 59H235.012L238.668 48.7017H253.373L257.029 59H261.646L248.293 22.6364H243.748L230.396 59Z" fill="#1982FC"/>
</svg>
